<?xml version="1.0" encoding="UTF-8" standalone="no"?>
<!-- Created with Inkscape (http://www.inkscape.org/) -->

<svg
   width="512"
   height="512"
   viewBox="0 0 512 512"
   version="1.1"
   id="svg1"
   xml:space="preserve"
   inkscape:version="1.4.2 (f4327f4, 2025-05-13)"
   sodipodi:docname="Logo.svg"
   inkscape:export-filename="..\..\Users\Keshuac\Pictures\dev-icon-128.png"
   inkscape:export-xdpi="24"
   inkscape:export-ydpi="24"
   xmlns:inkscape="http://www.inkscape.org/namespaces/inkscape"
   xmlns:sodipodi="http://sodipodi.sourceforge.net/DTD/sodipodi-0.dtd"
   xmlns="http://www.w3.org/2000/svg"
   xmlns:svg="http://www.w3.org/2000/svg"><sodipodi:namedview
     id="namedview1"
     pagecolor="#ffffff"
     bordercolor="#666666"
     borderopacity="1.0"
     inkscape:showpageshadow="2"
     inkscape:pageopacity="0.0"
     inkscape:pagecheckerboard="0"
     inkscape:deskcolor="#d1d1d1"
     inkscape:document-units="px"
     inkscape:zoom="0.39404297"
     inkscape:cx="41.873606"
     inkscape:cy="199.21685"
     inkscape:window-width="1920"
     inkscape:window-height="1009"
     inkscape:window-x="1912"
     inkscape:window-y="-8"
     inkscape:window-maximized="1"
     inkscape:current-layer="layer4-2"
     showgrid="false" /><defs
     id="defs1"><rect
       x="7.6133829"
       y="73.596034"
       width="482.18092"
       height="157.34325"
       id="rect1" /><rect
       x="7.6133828"
       y="73.596031"
       width="482.18091"
       height="157.34325"
       id="rect1-4" /><rect
       x="7.6133829"
       y="73.596034"
       width="482.18092"
       height="157.34325"
       id="rect4" /></defs><g
     inkscape:label="Folder"
     inkscape:groupmode="layer"
     id="layer1" /><g
     inkscape:groupmode="layer"
     id="layer3"
     inkscape:label="Folder Mask" /><g
     inkscape:groupmode="layer"
     id="layer2"
     inkscape:label="Earth"><g
       id="g13"><g
         style="fill:none;stroke:currentColor;stroke-width:1.47976224;stroke-linecap:round;stroke-linejoin:round;stroke-dasharray:none"
         id="g1"
         transform="matrix(16.894606,0,0,16.894606,53.264728,61.712031)"><path
           d="m 20,20 a 2,2 0 0 0 2,-2 V 8 A 2,2 0 0 0 20,6 H 12.1 A 2,2 0 0 1 10.41,5.1 L 9.6,3.9 A 2,2 0 0 0 7.93,3 H 4 A 2,2 0 0 0 2,5 v 13 a 2,2 0 0 0 2,2 z"
           id="path1"
           style="stroke-width:1.47976224;stroke-dasharray:none" /></g><rect
         style="font-variation-settings:'wght' 500;fill:#ff0000;stroke:#ffffff;stroke-width:24.2294;stroke-dasharray:none;stroke-opacity:1"
         id="rect2"
         width="174.9267"
         height="21.390148"
         x="258.78696"
         y="381.55276" /><rect
         style="font-variation-settings:'wght' 500;fill:#ffffff;stroke:#ffffff;stroke-width:21.7511;stroke-dasharray:none;stroke-opacity:1"
         id="rect2-1"
         width="32.750713"
         height="92.071663"
         x="396.34518"
         y="278.29813" /><g
         style="fill:none;stroke:currentColor;stroke-width:2.22484081;stroke-linecap:round;stroke-linejoin:round;stroke-dasharray:none"
         id="g2"
         transform="matrix(11.236759,0,0,11.236759,218.17426,216.18697)"><path
           d="M 21.54,15 H 17 a 2,2 0 0 0 -2,2 v 4.54"
           id="path1-8"
           style="stroke-width:2.22484081;stroke-dasharray:none" /><path
           d="M 7,3.34 V 5 a 3,3 0 0 0 3,3 2,2 0 0 1 2,2 c 0,1.1 0.9,2 2,2 a 2,2 0 0 0 2,-2 c 0,-1.1 0.9,-2 2,-2 h 3.17"
           id="path2"
           style="stroke-width:2.22484081;stroke-dasharray:none" /><path
           d="M 11,21.95 V 18 A 2,2 0 0 0 9,16 2,2 0 0 1 7,14 V 13 A 2,2 0 0 0 5,11 H 2.05"
           id="path3"
           style="stroke-width:2.22484081;stroke-dasharray:none" /><circle
           cx="12"
           cy="12"
           r="10"
           id="circle3"
           style="stroke-width:2.22484081;stroke-dasharray:none" /></g><path
         style="font-variation-settings:'wght' 500;fill:#00ffff;stroke:#000000;stroke-width:3.9653;stroke-dasharray:none;stroke-opacity:1"
         d="m 399.22807,423.54692 c 7.9e-4,-9.6997 0.064,-16.46092 0.16185,-17.31509 0.4778,-4.17038 3.26053,-7.42607 7.37092,-8.62369 0.87457,-0.25482 2.31833,-0.28125 17.82005,-0.32614 l 16.86838,-0.0488 -0.75422,1.39334 c -9.04951,16.71806 -23.36641,31.03584 -40.08043,40.08292 l -1.38785,0.75123 z"
         id="path4" /><path
         style="font-variation-settings:'wght' 500;fill:#00ffff;stroke:#000000;stroke-width:2;stroke-dasharray:none;stroke-opacity:1"
         d="m 354.51418,431.26701 c -0.25455,-22.05013 -0.62489,-24.1923 -5.46484,-31.61017 -6.42443,-9.84633 -14.71403,-14.83186 -27.01422,-16.24693 -10.87309,-1.25088 -12.14467,-3.10059 -12.56977,-18.28476 -0.25717,-9.18585 -0.48774,-10.98753 -1.88194,-14.70569 -3.32059,-8.85557 -9.70137,-15.9439 -17.82069,-19.79681 -6.39145,-3.03297 -9.71969,-3.56441 -22.32273,-3.56441 h -11.02048 l 0.62934,-2.37918 c 2.5289,-9.56023 7.38283,-19.91122 13.79034,-29.40783 4.136,-6.12998 12.28425,-15.79663 13.31536,-15.79663 0.248,0 0.76882,1.49888 1.15737,3.33085 3.27626,15.44711 15.40402,28.72981 30.7861,33.71791 2.72931,0.88506 7.74219,1.84658 11.31291,2.16993 6.99483,0.63342 8.64678,1.3966 11.226,5.18626 0.89947,1.3216 1.43158,3.06013 1.43852,4.70002 0.006,1.43142 0.43061,4.6011 0.94345,7.04373 5.71851,27.23717 39.22867,37.50796 59.08594,18.10972 6.09357,-5.95271 9.48158,-13.24859 10.44039,-22.48275 0.70389,-6.77912 2.14785,-9.5235 5.9097,-11.23195 2.27989,-1.03541 4.32525,-1.18175 16.68797,-1.19398 l 14.08961,-0.0139 1.25951,4.28253 c 2.98361,10.14477 3.55054,14.57558 3.55158,27.75712 6.5e-4,8.19993 -0.30497,14.20402 -0.86389,16.9715 l -0.8649,4.28253 h -22.73708 c -14.03185,0 -24.0243,0.26646 -26.09917,0.69597 -11.7442,2.43113 -22.02347,11.92989 -26.02349,24.04752 -1.26284,3.82562 -1.38738,5.84479 -1.72169,27.91435 l -0.36039,23.79044 -4.75837,0.70633 c -2.6171,0.38847 -6.80966,0.88899 -9.31679,1.11226 l -4.55843,0.40593 z"
         id="path5" /><path
         style="font-variation-settings:'wght' 500;fill:#00ff00;stroke:#000000;stroke-width:2;stroke-dasharray:none;stroke-opacity:1"
         d="m 321.98265,445.4673 c -23.10771,-7.62619 -41.95162,-22.87359 -54.86434,-44.39305 -7.7379,-12.89544 -13.33888,-31.73937 -13.33888,-44.87728 v -3.76079 h 10.96842 c 10.11722,0 11.18697,0.11078 13.78474,1.42751 4.7222,2.39354 5.31446,4.111 5.74317,16.65428 0.28772,8.41797 0.64424,11.56925 1.62413,14.35538 4.08687,11.62027 14.19942,20.57964 26.06681,23.09431 2.36825,0.50183 5.61983,0.91737 7.22572,0.92343 3.50256,0.0132 6.56611,1.85467 8.46596,5.08876 1.20215,2.0464 1.31929,3.43602 1.51063,17.92102 0.11409,8.63643 -0.0287,15.69308 -0.31722,15.68145 -0.28856,-0.0116 -3.37967,-0.96339 -6.86914,-2.11502 z"
         id="path6" /><path
         style="font-variation-settings:'wght' 500;fill:#00ff00;stroke:#000000;stroke-width:2.28098;stroke-dasharray:none;stroke-opacity:1"
         d="m 401.64538,419.88533 c 0,-22.36856 -0.79773,-21.59723 22.39654,-21.65514 16.98062,-0.0424 15.91816,-0.72481 10.6357,6.83128 -7.89387,11.29146 -17.97399,20.84596 -30.22085,28.645 l -2.81139,1.79035 z"
         id="path7" /><path
         style="font-variation-settings:'wght' 500;fill:#00ff00;stroke:#000000;stroke-width:2;stroke-dasharray:none;stroke-opacity:1"
         d="m 372.05858,337.65916 c -2.18861,-0.84168 -4.33671,-2.79691 -5.35145,-4.87096 -0.68871,-1.40768 -0.88184,-2.39371 -1.116,-5.69789 -0.56911,-8.03066 -2.79592,-14.22914 -7.13996,-19.87454 -3.39029,-4.40593 -8.26339,-8.3091 -13.25091,-10.61348 -3.83837,-1.77343 -7.68647,-2.66992 -13.06643,-3.04408 -7.17545,-0.49902 -10.26606,-1.48453 -14.39923,-4.59148 -2.55737,-1.92241 -4.51514,-4.36113 -6.09216,-7.58879 -1.76898,-3.62053 -2.19015,-6.27099 -2.19015,-13.78301 v -6.27244 l 2.60082,-1.18886 c 8.08929,-3.69772 16.97834,-6.28579 26.90104,-7.83232 3.99743,-0.62303 5.82517,-0.71754 13.95787,-0.72174 10.00542,-0.005 12.82546,0.25631 20.74072,1.92312 23.26509,4.89919 43.89497,17.98222 58.71115,37.23337 l 1.83108,2.37918 -8.68113,0.19696 c -11.63426,0.26396 -15.14426,0.95463 -21.42693,4.21626 -8.20515,4.25967 -14.46245,11.78504 -17.23731,20.73054 -0.79595,2.56594 -1.57625,7.48471 -1.57883,9.9524 -0.003,2.99429 -0.81871,4.92587 -3.00151,7.10867 -1.44909,1.44909 -2.33296,2.0495 -3.61919,2.45849 -2.21504,0.70432 -4.56003,0.66185 -6.59149,-0.1194 z"
         id="path9" /><path
         style="font-variation-settings:'wght' 500;fill:#ffcc00;stroke:#000000;stroke-width:3.338;stroke-dasharray:none;stroke-opacity:1"
         d="m 112.86894,384.59435 c -5.06582,-2.20652 -10.29694,-8.53211 -11.93578,-14.43301 -1.662229,-5.98513 -1.765707,-220.80689 -0.1098,-227.94665 1.44705,-6.23922 4.79488,-10.7912 10.33778,-14.05608 4.05444,-2.38815 6.5906,-2.53779 43.00986,-2.53779 36.43619,0 38.95057,0.14853 42.95911,2.53779 2.63832,1.57256 8.08788,8.17622 14.3279,17.36226 11.28642,16.61492 16.18895,21.49594 26.40231,26.28639 l 7.03683,3.30055 75.49938,0.63445 c 52.94754,0.44493 76.44694,1.07008 78.67162,2.09286 4.21171,1.93631 9.66589,7.83563 11.33935,12.26483 1.22224,3.23493 2.03777,49.08716 0.87307,49.08716 -0.26211,0 -3.83088,-1.49041 -7.93061,-3.31202 -18.61296,-8.27019 -43.51961,-11.88856 -64.55442,-9.37828 -55.62997,6.63884 -98.77561,47.05923 -109.20743,102.30946 -2.4989,13.23497 -1.88788,40.00317 1.16213,50.9112 l 1.86269,6.66171 -57.9372,-0.0497 c -45.29564,-0.0388 -58.78152,-0.41743 -61.80679,-1.73517 z"
         id="path10" /><rect
         style="font-variation-settings:'wght' 500;fill:#000000;stroke:#000000;stroke-width:3.338;stroke-dasharray:none;stroke-opacity:1"
         id="rect10"
         width="7.4547706"
         height="3.410161"
         x="408.50558"
         y="240.05948" /><rect
         style="font-variation-settings:'wght' 500;fill:#000000;stroke:#000000;stroke-width:3.338;stroke-dasharray:none;stroke-opacity:1"
         id="rect11"
         width="1.1895911"
         height="1.5068153"
         x="283.93558"
         y="277.57126" /><rect
         style="font-variation-settings:'wght' 500;fill:#000000;stroke:#000000;stroke-width:18.8499;stroke-dasharray:none;stroke-opacity:1"
         id="rect12"
         width="176.49957"
         height="2.6109054"
         x="85.332932"
         y="164.95897" /></g></g><g
     inkscape:groupmode="layer"
     id="layer4"
     inkscape:label="Dev Text Negative"
     style="display:inline"><g
       id="g3"
       transform="translate(5.3834747,6.2807204)"><rect
         style="fill:#ff0000;stroke:#ff0000;stroke-width:21.5029;stroke-dasharray:none;stroke-opacity:1"
         id="rect3"
         width="219.92038"
         height="99.120087"
         x="258.97165"
         y="22.449869" /><text
         xml:space="preserve"
         id="text1"
         style="font-size:40px;line-height:1.25;font-family:sans-serif;white-space:pre;shape-inside:url(#rect1);display:inline;fill:#ffffff"
         transform="matrix(2.9041253,0,0,2.9041253,237.10407,-209.95141)"><tspan
           x="7.6132812"
           y="110.18991"
           id="tspan5"><tspan
             style="font-weight:bold;font-family:'Intel One Mono';-inkscape-font-specification:'Intel One Mono'"
             id="tspan4">DEV</tspan></tspan></text></g></g><g
     inkscape:groupmode="layer"
     id="layer4-2"
     inkscape:label="Dev Text Positive"
     transform="translate(-14.60367,-5.97914)"
     style="display:none"><text
       xml:space="preserve"
       id="text1-5"
       style="font-size:40px;line-height:1.25;font-family:sans-serif;white-space:pre;shape-inside:url(#rect1-4);display:inline;fill:#ff0000"
       transform="matrix(2.9041253,0,0,2.9041253,252.43035,-201.07847)"><tspan
         x="7.6132812"
         y="110.18991"
         id="tspan7"><tspan
           style="font-weight:bold;font-family:'Intel One Mono';-inkscape-font-specification:'Intel One Mono'"
           id="tspan6">DEV</tspan></tspan></text></g></svg>
